<?xml version="1.0" encoding="UTF-8"?>
<svg width="134px" height="25px" viewBox="0 0 134 25" version="1.1" xmlns="http://www.w3.org/2000/svg" xmlns:xlink="http://www.w3.org/1999/xlink">
    <!-- Generator: Sketch 51.1 (57501) - http://www.bohemiancoding.com/sketch -->
    <title>Hai-Ha-Money-Transfer-Logo__white</title>
    <desc>Created with Sketch.</desc>
    <defs></defs>
    <g id="Symbols" stroke="none" stroke-width="1" fill="none" fill-rule="evenodd">
        <g id="Remox-Footer" transform="translate(-448.000000, -276.000000)">
            <g id="Footer">
                <g id="Hai-Ha-Money-Transfer-Logo__white" transform="translate(448.000000, 276.000000)">
                    <path d="M12.265873,0.551587302 C8.77829764,0.546000999 5.46047859,2.05647034 3.17460317,4.69047619 C3.17460317,4.76190476 3.13888889,4.82936508 3.12301587,4.90873016 C2.38095238,8.96031746 13.7738095,15.7460317 13.7738095,15.7460317 C13.7738095,15.7460317 5.72222222,14.531746 0.932539683,8.6468254 L0.900793651,8.60714286 C0.675228711,9.25282922 0.505297362,9.91662355 0.392857143,10.5912698 C1.45238095,15.2222222 16.5992063,17.9722222 16.5992063,17.9722222 C16.5992063,17.9722222 6.86111111,19.484127 0.642857143,15.6904762 C0.670634921,15.8015873 0.698412698,15.9166667 0.726190476,16.0357143 C0.90723457,16.6381353 1.13408656,17.2258279 1.4047619,17.7936508 C5.00793651,20.968254 18.9444444,19.0873016 18.9444444,19.0873016 C18.9444444,19.0873016 12.6825397,22.8571429 5.6468254,22.6587302 C9.94761093,25.4795189 15.5653323,25.25677 19.6292719,22.1043105 C23.6932114,18.951851 25.305793,13.5659442 23.6429698,8.69884816 C21.9801465,3.83175209 17.4091753,0.558430658 12.265873,0.551587302 Z" id="Shape"></path>
                    <polygon id="Shape" fill="#FCB519" fill-rule="nonzero" points="31.702381 11.1111111 30.5119048 11.1111111 30.5119048 3.01587302 31.702381 3.01587302 31.702381 6.5 35.8492063 6.5 35.8492063 3.01587302 37.0396825 3.01587302 37.0396825 11.1111111 35.8492063 11.1111111 35.8492063 7.47222222 31.702381 7.47222222"></polygon>
                    <path d="M35.7142857,11.234127 L35.7142857,7.59920635 L31.8333333,7.59920635 L31.8333333,11.234127 L30.3809524,11.234127 L30.3809524,2.90079365 L31.8333333,2.90079365 L31.8333333,6.38492063 L35.7142857,6.38492063 L35.7142857,2.88888889 L37.1547619,2.88888889 L37.1547619,11.2222222 L35.7142857,11.234127 Z M35.9761905,7.34126984 L35.9761905,10.9722222 L36.9047619,10.9722222 L36.9047619,3.1468254 L35.9761905,3.1468254 L35.9761905,6.62698413 L31.5753968,6.62698413 L31.5753968,3.1468254 L30.6388889,3.1468254 L30.6388889,10.9761905 L31.5753968,10.9761905 L31.5753968,7.34126984 L35.9761905,7.34126984 Z" id="Shape" fill="#FCB519" fill-rule="nonzero"></path>
                    <path d="M43.8333333,9.38888889 L40.1111111,9.38888889 L39.3690476,11.1111111 L38.1507937,11.1111111 L41.9444444,2.77777778 L42.0198413,2.77777778 L45.8293651,11.1111111 L44.6071429,11.1111111 L43.8333333,9.38888889 Z M40.5,8.49206349 L43.4603175,8.49206349 L41.968254,5.08333333 L40.5,8.49206349 Z" id="Shape" fill="#FCB519" fill-rule="nonzero"></path>
                    <path d="M44.5238095,11.234127 L43.75,9.52380952 L40.1785714,9.52380952 L39.4325397,11.2420635 L37.9484127,11.2420635 L41.8611111,2.6468254 L42.1031746,2.6468254 L46.031746,11.234127 L44.5238095,11.234127 Z M43.9206349,9.25 L44.6904762,10.968254 L45.6349206,10.968254 L41.9920635,2.99206349 L38.3611111,10.968254 L39.2857143,10.968254 L40.031746,9.25 L43.8373016,9.25 L43.8373016,9.38095238 L43.718254,9.43253968 L43.8373016,9.38095238 L43.8373016,9.25 L43.9206349,9.25 Z M40.5,8.61111111 L40.3055556,8.61111111 L41.968254,4.76190476 L43.6507937,8.61904762 L40.5,8.61111111 Z M43.2777778,8.3531746 L41.984127,5.3968254 L40.7103175,8.3531746 L43.2777778,8.3531746 Z" id="Shape" fill="#FCB519" fill-rule="nonzero"></path>
                    <polygon id="Shape" fill="#FCB519" fill-rule="nonzero" points="48.1388889 11.1111111 46.9484127 11.1111111 46.9484127 3.01587302 48.1388889 3.01587302"></polygon>
                    <path d="M46.8253968,11.234127 L46.8253968,2.90079365 L48.2777778,2.90079365 L48.2777778,11.234127 L46.8253968,11.234127 Z M47.0873016,10.9722222 L48.015873,10.9722222 L48.015873,3.1468254 L47.0833333,3.1468254 L47.0833333,10.9761905 L47.0873016,10.9722222 Z" id="Shape" fill="#FCB519" fill-rule="nonzero"></path>
                    <polygon id="Shape" fill="#FCB519" fill-rule="nonzero" points="54 11.1111111 52.8095238 11.1111111 52.8095238 3.01587302 54 3.01587302 54 6.5 58.1428571 6.5 58.1428571 3.01587302 59.3333333 3.01587302 59.3333333 11.1111111 58.1428571 11.1111111 58.1428571 7.47222222 54 7.47222222"></polygon>
                    <path d="M58.015873,11.234127 L58.015873,7.59920635 L54.1309524,7.59920635 L54.1309524,11.234127 L52.6785714,11.234127 L52.6785714,2.90079365 L54.1309524,2.90079365 L54.1309524,6.38492063 L58.015873,6.38492063 L58.015873,2.88888889 L59.4563492,2.88888889 L59.4563492,11.2222222 L58.015873,11.234127 Z M52.9325397,10.9801587 L53.8690476,10.9801587 L53.8690476,7.34126984 L58.2698413,7.34126984 L58.2698413,10.9722222 L59.1944444,10.9722222 L59.1944444,3.1468254 L58.2698413,3.1468254 L58.2698413,6.62698413 L53.8690476,6.62698413 L53.8690476,3.1468254 L52.9325397,3.1468254 L52.9325397,10.9761905 L52.9325397,10.9801587 Z" id="Shape" fill="#FCB519" fill-rule="nonzero"></path>
                    <path d="M66.1309524,9.38888889 L62.4126984,9.38888889 L61.6626984,11.1111111 L60.4444444,11.1111111 L64.2420635,2.77777778 L64.3174603,2.77777778 L68.1269841,11.1111111 L66.9047619,11.1111111 L66.1309524,9.38888889 Z M62.797619,8.49206349 L65.7579365,8.49206349 L64.265873,5.08333333 L62.797619,8.49206349 Z" id="Shape" fill="#FCB519" fill-rule="nonzero"></path>
                    <path d="M66.8214286,11.234127 L66.0277778,9.51587302 L62.4801587,9.51587302 L61.734127,11.234127 L60.2301587,11.234127 L64.1428571,2.63888889 L64.3849206,2.63888889 L68.3134921,11.234127 L66.8214286,11.234127 Z M66.218254,9.25 L66.9920635,10.9642857 L67.9246032,10.9642857 L64.2857143,3 L60.6547619,10.9761905 L61.5873016,10.9761905 L62.3333333,9.26190476 L66.1388889,9.26190476 L66.1388889,9.38888889 L66.0198413,9.44047619 L66.1388889,9.38888889 L66.1388889,9.26190476 L66.218254,9.25 Z M62.797619,8.61111111 L62.6031746,8.61111111 L64.2619048,4.76190476 L65.9563492,8.62698413 L62.797619,8.61111111 Z M65.5753968,8.3531746 L64.2857143,5.40873016 L63.0119048,8.36507937 L65.5753968,8.3531746 Z" id="Shape" fill="#FCB519" fill-rule="nonzero"></path>
                    <polygon id="Shape" fill="#FFFFFF" fill-rule="nonzero" points="31.702381 17.4603175 31.702381 22.7857143 30.5119048 22.7857143 30.5119048 14.452381 30.5555556 14.452381 34.5238095 19.5119048 38.4920635 14.452381 38.5555556 14.452381 38.5555556 22.7857143 37.3650794 22.7857143 37.3650794 17.4603175 34.5634921 21.1547619 34.4880952 21.1547619"></polygon>
                    <path d="M37.234127,22.9166667 L37.234127,17.8333333 L34.6309524,21.2738095 L34.4285714,21.2738095 L31.8333333,17.8373016 L31.8333333,22.9166667 L30.3809524,22.9166667 L30.3809524,14.3214286 L30.6349206,14.3214286 L34.5238095,19.3015873 L38.4166667,14.3214286 L38.6746032,14.3214286 L38.6746032,22.9166667 L37.234127,22.9166667 Z M37.4920635,22.6587302 L38.4166667,22.6587302 L38.4166667,14.7460317 L34.5238095,19.7261905 L30.6349206,14.7460317 L30.6349206,22.6587302 L31.5714286,22.6587302 L31.5714286,17.0634921 L34.5238095,20.9801587 L37.4960317,17.0634921 L37.4960317,22.6587302 L37.4920635,22.6587302 Z M31.5992063,17.5277778 L31.702381,17.4484127 L31.5992063,17.5277778 Z" id="Shape" fill="#FFFFFF" fill-rule="nonzero"></path>
                    <path d="M43.75,14.5119048 C46.1309524,14.5119048 47.6547619,16.1785714 47.6547619,18.7420635 C47.6547619,21.3055556 46.1388889,22.9722222 43.75,22.9722222 C41.3611111,22.9722222 39.8531746,21.3055556 39.8531746,18.7420635 C39.8531746,16.1785714 41.3611111,14.5119048 43.75,14.5119048 Z M43.75,21.9285714 C45.3928571,21.9285714 46.4365079,20.6984127 46.4365079,18.7539683 C46.4365079,16.8095238 45.3928571,15.5793651 43.75,15.5793651 C42.1071429,15.5793651 41.0753968,16.7698413 41.0753968,18.7539683 C41.0753968,20.7380952 42.1309524,21.9285714 43.75,21.9285714 Z" id="Shape" fill="#FFFFFF" fill-rule="nonzero"></path>
                    <path d="M40.8095238,21.9047619 C40.0591663,21.0218556 39.6707189,19.8877024 39.7222222,18.7301587 C39.6707189,17.5726151 40.0591663,16.4384619 40.8095238,15.5555556 C41.5738771,14.7558075 42.6445563,14.3223342 43.75,14.3650794 L43.75,14.6230159 C41.4285714,14.6230159 39.9920635,16.2103175 39.984127,18.7261905 C39.984127,21.2380952 41.4285714,22.8174603 43.75,22.8293651 C46.0714286,22.8293651 47.515873,21.2420635 47.5277778,18.7261905 C47.5277778,16.2142857 46.0714286,14.6349206 43.75,14.6269841 L43.75,14.3690476 C44.8564474,14.3272111 45.9279882,14.7604487 46.6944444,15.5595238 C47.4472803,16.4412424 47.8373133,17.5758839 47.7857143,18.734127 C47.8369143,19.8923124 47.4469301,21.0268117 46.6944444,21.9087302 C45.9282804,22.7082367 44.8565372,23.1415561 43.75,23.0992063 C42.6471028,23.1406826 41.5793657,22.7072304 40.8174603,21.9087302 L40.8095238,21.9047619 Z M43.75,22.0555556 L43.75,21.797619 C45.3373016,21.797619 46.297619,20.6507937 46.3055556,18.7420635 C46.3055556,16.8174603 45.3174603,15.7063492 43.75,15.6984127 C42.2063492,15.6984127 41.2142857,16.8214286 41.202381,18.7420635 C41.202381,20.6507937 42.2063492,21.7936508 43.7460317,21.797619 L43.7460317,22.0555556 C42.9629693,22.0789208 42.2114899,21.746227 41.702381,21.1507937 C41.1717123,20.4631658 40.9017803,19.6097869 40.9404762,18.7420635 C40.8999443,17.8753183 41.1701224,17.0225686 41.702381,16.3373016 C42.2133673,15.7452917 42.9643862,15.4157183 43.7460317,15.4404762 C44.5326157,15.413751 45.2892916,15.7432477 45.8055556,16.3373016 C46.336397,17.0231127 46.6051516,17.8758107 46.5634921,18.7420635 C46.604358,19.6094333 46.3357378,20.4631112 45.8055556,21.1507937 C45.2929298,21.7460697 44.539216,22.0784618 43.7539683,22.0555556 L43.75,22.0555556 Z" id="Shape" fill="#FFFFFF" fill-rule="nonzero"></path>
                    <polygon id="Shape" fill="#FFFFFF" fill-rule="nonzero" points="50.1547619 17.1746032 50.1547619 22.7857143 48.9642857 22.7857143 48.9642857 14.452381 49.0277778 14.452381 54.5396825 20.3015873 54.5396825 14.6825397 55.7301587 14.6825397 55.7301587 23.015873 55.6706349 23.015873"></polygon>
                    <path d="M55.7301587,23.1626984 L55.6111111,23.1626984 L50.2857143,17.5 L50.2857143,22.9166667 L48.8333333,22.9166667 L48.8333333,14.3214286 L49.0793651,14.3214286 L54.4047619,19.9722222 L54.4047619,14.5674603 L55.8571429,14.5674603 L55.8571429,23.1626984 L55.7301587,23.1626984 Z M55.6031746,22.765873 L55.6031746,14.8293651 L54.6666667,14.8293651 L54.6666667,20.6349206 L49.1111111,14.718254 L49.1111111,22.6547619 L50.047619,22.6547619 L50.047619,16.8492063 L55.6031746,22.7738095 L55.6031746,22.765873 Z M50.047619,17.2539683 L50.1428571,17.1666667 L50.047619,17.2539683 Z" id="Shape" fill="#FFFFFF" fill-rule="nonzero"></path>
                    <polygon id="Shape" fill="#FFFFFF" fill-rule="nonzero" points="57.4087302 14.6825397 62.6984127 14.6825397 62.6984127 15.7142857 58.6031746 15.7142857 58.6031746 18.1428571 62 18.1428571 62 19.1388889 58.6031746 19.1388889 58.6031746 21.75 62.8095238 21.75 62.8095238 22.7698413 57.4087302 22.7698413"></polygon>
                    <path d="M57.2777778,22.9166667 L57.2777778,14.5833333 L62.8134921,14.5833333 L62.8134921,15.8730159 L58.7301587,15.8730159 L58.7301587,18.0396825 L62.1269841,18.0396825 L62.1269841,19.2936508 L58.7301587,19.2936508 L58.7301587,21.6468254 L62.9365079,21.6468254 L62.9365079,22.9246032 L57.2777778,22.9166667 Z M57.5357143,22.6587302 L62.6944444,22.6587302 L62.6944444,21.8968254 L58.4880952,21.8968254 L58.4880952,19.0238095 L61.8849206,19.0238095 L61.8849206,18.2896825 L58.4880952,18.2896825 L58.4880952,15.6031746 L62.5674603,15.6031746 L62.5674603,14.8095238 L57.5396825,14.8095238 L57.5396825,22.6587302 L57.5357143,22.6587302 Z" id="Shape" fill="#FFFFFF" fill-rule="nonzero"></path>
                    <polygon id="Shape" fill="#FFFFFF" fill-rule="nonzero" points="67.8373016 19.9603175 67.8373016 22.7857143 66.6468254 22.7857143 66.6468254 19.9603175 63.6825397 14.6825397 64.9642857 14.6825397 67.2420635 18.8888889 69.515873 14.6825397 70.797619 14.6825397"></polygon>
                    <path d="M66.5119048,22.9166667 L66.5119048,19.9960317 L63.4603175,14.5674603 L65.047619,14.5674603 L67.2380952,18.6507937 L69.4444444,14.5674603 L71.031746,14.5674603 L67.9801587,19.9960317 L67.9801587,22.9126984 L66.5119048,22.9166667 Z M66.7698413,19.9285714 L66.7698413,22.6587302 L67.7063492,22.6587302 L67.7063492,19.9285714 L70.5753968,14.8293651 L69.5912698,14.8293651 L67.2380952,19.1944444 L64.8849206,14.8293651 L63.8888889,14.8293651 L66.7579365,19.9285714 L66.7698413,19.9285714 Z" id="Shape" fill="#FFFFFF" fill-rule="nonzero"></path>
                    <polygon id="Shape" fill="#FFFFFF" fill-rule="nonzero" points="81.0238095 15.7301587 78.3730159 15.7301587 78.3730159 22.7857143 77.1825397 22.7857143 77.1825397 15.7301587 74.531746 15.7301587 74.531746 14.6825397 81.0277778 14.6825397"></polygon>
                    <path d="M77.0515873,22.9166667 L77.0515873,15.8730159 L74.4007937,15.8730159 L74.4007937,14.5674603 L81.1468254,14.5674603 L81.1468254,15.8730159 L78.4960317,15.8730159 L78.4960317,22.9166667 L77.0515873,22.9166667 Z M74.6706349,15.6031746 L77.3174603,15.6031746 L77.3174603,22.6587302 L78.2539683,22.6587302 L78.2539683,15.6031746 L80.9047619,15.6031746 L80.9047619,14.8095238 L74.6587302,14.8095238 L74.6587302,15.6031746 L74.6706349,15.6031746 Z" id="Shape" fill="#FFFFFF" fill-rule="nonzero"></path>
                    <path d="M83.5873016,22.7857143 L82.3968254,22.7857143 L82.3968254,14.6825397 L85.1111111,14.6825397 C86.9126984,14.6825397 88.2579365,15.4166667 88.2579365,17.281746 C88.3124842,18.3140887 87.7096318,19.2684725 86.7539683,19.6626984 L88.6944444,22.7619048 L87.265873,22.7619048 L85.5992063,19.9246032 C85.4387158,19.9453471 85.2768309,19.9533087 85.1150794,19.9484127 L83.5952381,19.9484127 L83.5873016,22.7857143 Z M84.8333333,18.9920635 C86.202381,18.9920635 87.0595238,18.5952381 87.0595238,17.3015873 C87.0595238,16.0079365 86.1349206,15.7142857 84.8333333,15.7142857 L83.5873016,15.7142857 L83.5873016,19 L84.8333333,18.9920635 Z" id="Shape" fill="#FFFFFF" fill-rule="nonzero"></path>
                    <path d="M87.1825397,22.9166667 L85.5198413,20.0912698 C85.3810707,20.0993786 85.2419451,20.0993786 85.1031746,20.0912698 L83.7301587,20.0912698 L83.7301587,22.9007937 L82.2619048,22.9007937 L82.2619048,14.5674603 L85.1031746,14.5674603 C85.9265179,14.5237133 86.7423986,14.74332 87.4325397,15.1944444 C88.0790837,15.6942262 88.4358181,16.4820148 88.3849206,17.297619 C88.4369973,18.3294122 87.8665202,19.2921899 86.9365079,19.7420635 L88.9206349,22.9166667 L87.1825397,22.9166667 Z M87.3333333,22.6587302 L88.4563492,22.6587302 L86.5595238,19.6309524 L86.6984127,19.5714286 C87.6109595,19.1981072 88.185121,18.2858284 88.1269841,17.3015873 C88.1269841,15.515873 86.8849206,14.8452381 85.1071429,14.8293651 L82.5396825,14.8293651 L82.5396825,22.6587302 L83.4761905,22.6587302 L83.4761905,19.8412698 L85.1230159,19.8412698 C85.2794817,19.8454804 85.4360381,19.83752 85.5912698,19.8174603 L85.6746032,19.8174603 L87.3492063,22.6626984 L87.3333333,22.6587302 Z M83.4603175,19.1230159 L83.4603175,15.5753968 L84.8333333,15.5753968 C85.407711,15.5374292 85.9820838,15.6495686 86.5,15.9007937 C86.9734959,16.2000828 87.2388098,16.7399122 87.1865079,17.297619 C87.2358554,17.8613764 86.9858006,18.4096893 86.5277778,18.7420635 C86.0117975,19.0354681 85.4219346,19.1732865 84.8293651,19.1388889 L84.8293651,18.8809524 C86.1904762,18.8571429 86.9126984,18.5396825 86.9246032,17.3174603 C86.9246032,16.1031746 86.1309524,15.8730159 84.8293651,15.8531746 L83.7301587,15.8531746 L83.7301587,18.8809524 L84.8452381,18.8809524 L84.8452381,19.1388889 L83.4603175,19.1230159 Z" id="Shape" fill="#FFFFFF" fill-rule="nonzero"></path>
                    <path d="M95.0595238,21.0674603 L91.3412698,21.0674603 L90.5952381,22.7857143 L89.3730159,22.7857143 L93.1666667,14.452381 L93.2539683,14.452381 L97.0595238,22.7857143 L95.8412698,22.7857143 L95.0595238,21.0674603 Z M91.7261905,20.1746032 L94.6865079,20.1746032 L93.1944444,16.765873 L91.7261905,20.1746032 Z" id="Shape" fill="#FFFFFF" fill-rule="nonzero"></path>
                    <path d="M95.7460317,22.9166667 L94.9761905,21.1984127 L91.4246032,21.1984127 L90.6785714,22.9166667 L89.1746032,22.9166667 L93.0873016,14.3214286 L93.3293651,14.3214286 L97.2539683,22.9166667 L95.7460317,22.9166667 Z M95.1428571,20.9325397 L95.9166667,22.6507937 L96.8492063,22.6507937 L93.2063492,14.6825397 L89.5753968,22.6587302 L90.5079365,22.6587302 L91.2698413,20.9404762 L95.0753968,20.9404762 L95.0753968,21.0714286 L94.9603175,21.1269841 L95.0753968,21.0714286 L95.0753968,20.9404762 L95.1428571,20.9325397 Z M91.7261905,20.297619 L91.531746,20.297619 L93.1944444,16.4365079 L94.8849206,20.297619 L91.7261905,20.297619 Z M94.5039683,20.0396825 L93.2103175,17.0833333 L91.9365079,20.0396825 L94.5039683,20.0396825 Z" id="Shape" fill="#FFFFFF" fill-rule="nonzero"></path>
                    <polygon id="Shape" fill="#FFFFFF" fill-rule="nonzero" points="99.3650794 17.1746032 99.3650794 22.7857143 98.1746032 22.7857143 98.1746032 14.452381 98.2380952 14.452381 103.75 20.3015873 103.75 14.6825397 104.940476 14.6825397 104.940476 23.015873 104.876984 23.015873"></polygon>
                    <path d="M104.940476,23.1626984 L104.821429,23.1626984 L99.4920635,17.5 L99.4920635,22.9166667 L98.0396825,22.9166667 L98.0396825,14.3214286 L98.2896825,14.3214286 L103.615079,19.9722222 L103.615079,14.5674603 L105.06746,14.5674603 L105.06746,23.1626984 L104.940476,23.1626984 Z M104.809524,22.765873 L104.809524,14.8293651 L103.876984,14.8293651 L103.876984,20.6349206 L98.3214286,14.718254 L98.3214286,22.6547619 L99.2579365,22.6547619 L99.2579365,16.8492063 L104.833333,22.7777778 L104.809524,22.765873 Z M99.2539683,17.2539683 L99.3492063,17.1666667 L99.2539683,17.2539683 Z" id="Shape" fill="#FFFFFF" fill-rule="nonzero"></path>
                    <path d="M109.265873,22.9722222 C108.281746,22.9722222 106.801587,22.6865079 106.130952,21.5555556 L106.900794,20.7619048 C107.469113,21.495099 108.354578,21.9112675 109.281746,21.8809524 C110.452381,21.8809524 111.18254,21.4087302 111.18254,20.5595238 C111.18254,19.7857143 110.662698,19.4642857 109.416667,19.1666667 C107.623016,18.718254 106.392857,18.2857143 106.392857,16.6746032 C106.392857,15.3690476 107.5,14.5 109.305556,14.5 C110.261905,14.5 111.357143,14.6587302 112.115079,15.4444444 L111.396825,16.3174603 C110.825083,15.8007837 110.075835,15.5249693 109.305556,15.547619 C108.257937,15.547619 107.650794,16.0198413 107.650794,16.6666667 C107.650794,17.4365079 108.146825,17.6626984 109.404762,17.9960317 C110.936508,18.3928571 112.440476,18.7539683 112.440476,20.5595238 C112.428571,22.1904762 110.944444,22.9722222 109.265873,22.9722222 Z" id="Shape" fill="#FFFFFF" fill-rule="nonzero"></path>
                    <path d="M106.019841,21.6230159 L105.972222,21.5357143 L106.920635,20.5674603 L107.007937,20.6984127 C107.549984,21.3901175 108.387375,21.7845302 109.265873,21.7619048 C110.412698,21.7619048 111.039683,21.3214286 111.039683,20.5714286 C111.039683,19.8849206 110.623016,19.6150794 109.369048,19.3015873 C107.587302,18.8650794 106.246032,18.3888889 106.246032,16.6865079 C106.246032,15.2936508 107.436508,14.3849206 109.289683,14.3849206 C110.257937,14.3849206 111.392857,14.5436508 112.190476,15.3690476 L112.27381,15.452381 L111.396825,16.5119048 L111.293651,16.4285714 C110.746396,15.9323986 110.028033,15.6678135 109.289683,15.6904762 C108.27381,15.6904762 107.765873,16.1309524 107.761905,16.6825397 C107.761905,17.3650794 108.15873,17.5357143 109.420635,17.8730159 C110.928571,18.2698413 112.551587,18.6666667 112.551587,20.5595238 C112.551587,22.2777778 110.964286,23.0873016 109.261905,23.0912698 L109.261905,22.8333333 C110.912698,22.8333333 112.289683,22.0793651 112.289683,20.5634921 C112.289683,18.8650794 110.904762,18.547619 109.349206,18.1269841 C108.111111,17.8055556 107.496032,17.531746 107.5,16.6706349 C107.5,15.9246032 108.210317,15.4206349 109.285714,15.4206349 C110.04064,15.3996725 110.777242,15.6550843 111.357143,16.1388889 L111.928571,15.4761905 C111.214286,14.8015873 110.202381,14.6507937 109.293651,14.6507937 C107.52381,14.6507937 106.515873,15.4801587 106.515873,16.6984127 C106.515873,18.2103175 107.638889,18.6031746 109.440476,19.0793651 C110.68254,19.3650794 111.309524,19.7420635 111.305556,20.5992063 C111.305556,21.5436508 110.468254,22.047619 109.27381,22.047619 C108.363412,22.0678778 107.491075,21.6825954 106.892857,20.9960317 L106.297619,21.5992063 C106.948413,22.5952381 108.333333,22.8730159 109.269841,22.8690476 L109.269841,23.1269841 C108.265873,23.1269841 106.742063,22.8412698 106.019841,21.6468254 L106.019841,21.6230159 Z" id="Shape" fill="#FFFFFF" fill-rule="nonzero"></path>
                    <polygon id="Shape" fill="#FFFFFF" fill-rule="nonzero" points="113.670635 14.6825397 118.948413 14.6825397 118.948413 15.7142857 114.869048 15.7142857 114.869048 18.1666667 118.015873 18.1666667 118.015873 19.1626984 114.869048 19.1626984 114.869048 22.7698413 113.678571 22.7698413"></polygon>
                    <path d="M113.543651,22.9166667 L113.543651,14.5833333 L119.079365,14.5833333 L119.079365,15.8730159 L114.996032,15.8730159 L114.996032,18.0634921 L118.142857,18.0634921 L118.142857,19.3174603 L114.996032,19.3174603 L114.996032,22.9246032 L113.543651,22.9166667 Z M113.801587,22.6587302 L114.738095,22.6587302 L114.738095,19.047619 L117.884921,19.047619 L117.884921,18.3095238 L114.738095,18.3095238 L114.738095,15.6031746 L118.81746,15.6031746 L118.81746,14.8095238 L113.801587,14.8095238 L113.801587,22.6587302 Z" id="Shape" fill="#FFFFFF" fill-rule="nonzero"></path>
                    <polygon id="Shape" fill="#FFFFFF" fill-rule="nonzero" points="120.190476 14.6825397 125.464286 14.6825397 125.464286 15.7142857 121.384921 15.7142857 121.384921 18.1428571 124.781746 18.1428571 124.781746 19.1388889 121.384921 19.1388889 121.384921 21.75 125.59127 21.75 125.59127 22.7698413 120.190476 22.7698413"></polygon>
                    <path d="M120.059524,22.9166667 L120.059524,14.5833333 L125.595238,14.5833333 L125.595238,15.8730159 L121.515873,15.8730159 L121.515873,18.0396825 L124.912698,18.0396825 L124.912698,19.2936508 L121.515873,19.2936508 L121.515873,21.6468254 L125.722222,21.6468254 L125.722222,22.9246032 L120.059524,22.9166667 Z M120.31746,22.6587302 L125.47619,22.6587302 L125.47619,21.8968254 L121.269841,21.8968254 L121.269841,19.0238095 L124.666667,19.0238095 L124.666667,18.2857143 L121.269841,18.2857143 L121.269841,15.6031746 L125.349206,15.6031746 L125.349206,14.8095238 L120.321429,14.8095238 L120.321429,22.6587302 L120.31746,22.6587302 Z" id="Shape" fill="#FFFFFF" fill-rule="nonzero"></path>
                    <path d="M128.031746,22.7857143 L126.84127,22.7857143 L126.84127,14.6825397 L129.555556,14.6825397 C131.357143,14.6825397 132.702381,15.4166667 132.702381,17.281746 C132.756929,18.3140887 132.154076,19.2684725 131.198413,19.6626984 L133.138889,22.7619048 L131.710317,22.7619048 L130.039683,19.9246032 C129.879195,19.9453805 129.717307,19.9533422 129.555556,19.9484127 L128.035714,19.9484127 L128.031746,22.7857143 Z M129.277778,18.9920635 C130.646825,18.9920635 131.503968,18.5952381 131.503968,17.3015873 C131.503968,16.0079365 130.583333,15.7142857 129.277778,15.7142857 L128.031746,15.7142857 L128.031746,19 L129.277778,18.9920635 Z" id="Shape" fill="#FFFFFF" fill-rule="nonzero"></path>
                    <path d="M131.626984,22.9166667 L129.964286,20.0912698 C129.832125,20.0990483 129.699621,20.0990483 129.56746,20.0912698 L128.174603,20.0912698 L128.174603,22.9007937 L126.706349,22.9007937 L126.706349,14.5674603 L129.547619,14.5674603 C130.370933,14.5239906 131.186729,14.7435745 131.876984,15.1944444 C132.522404,15.6951139 132.878854,16.4822738 132.829365,17.297619 C132.881442,18.3294122 132.310965,19.2921899 131.380952,19.7420635 L133.365079,22.9166667 L131.626984,22.9166667 Z M131.777778,22.6587302 L132.900794,22.6587302 L131.003968,19.6309524 L131.142857,19.5714286 C132.055404,19.1981072 132.629565,18.2858284 132.571429,17.3015873 C132.571429,15.515873 131.329365,14.8452381 129.551587,14.8293651 L126.984127,14.8293651 L126.984127,22.6587302 L127.920635,22.6587302 L127.920635,19.8412698 L129.56746,19.8412698 C129.723937,19.8465438 129.88058,19.8385789 130.035714,19.8174603 L130.119048,19.8174603 L131.793651,22.6626984 L131.777778,22.6587302 Z M127.904762,19.1230159 L127.904762,15.5753968 L129.277778,15.5753968 C129.853466,15.5369164 130.42925,15.6490642 130.948413,15.9007937 C131.421909,16.2000828 131.687223,16.7399122 131.634921,17.297619 C131.684268,17.8613764 131.434213,18.4096893 130.97619,18.7420635 C130.459961,19.0348314 129.870289,19.1726054 129.277778,19.1388889 L129.277778,18.8769841 C130.634921,18.8571429 131.361111,18.5436508 131.376984,17.3134921 C131.376984,16.0992063 130.583333,15.8690476 129.277778,15.8492063 L128.174603,15.8492063 L128.174603,18.8769841 L129.289683,18.8769841 L129.289683,19.1388889 L127.904762,19.1230159 Z" id="Shape" fill="#FFFFFF" fill-rule="nonzero"></path>
                    <path d="M12.265873,0 C8.79187478,0.000776426868 5.49093672,1.51648372 3.22619048,4.15079365 C3.22619048,4.22222222 3.18650794,4.28968254 3.17460317,4.36904762 C2.44444444,8.42460317 13.7698413,15.2222222 13.7698413,15.2222222 C13.7698413,15.2222222 5.75,14.0119048 0.984126984,8.11111111 L0.952380952,8.07142857 C0.729309032,8.71757932 0.560730752,9.38127333 0.448412698,10.0555556 C1.50396825,14.6825397 16.5833333,17.4365079 16.5833333,17.4365079 C16.5833333,17.4365079 6.88888889,18.968254 0.694444444,15.1706349 L0.793650794,15.515873 C0.97254206,16.1184758 1.19809171,16.7062317 1.46825397,17.2738095 C5.03968254,20.4484127 18.9285714,18.5714286 18.9285714,18.5714286 C18.9285714,18.5714286 12.6984127,22.3531746 5.67460317,22.1428571 C9.36476939,24.5818033 14.0988243,24.7881424 17.9872017,22.6795158 C21.875579,20.5708891 24.2850799,16.4906737 24.2539683,12.0674603 C24.2645101,8.87749005 23.0074005,5.81398681 20.7591927,3.55089523 C18.510985,1.28780365 15.4558434,0.01050712 12.265873,0 Z" id="Shape" fill="#FCB519" fill-rule="nonzero"></path>
                </g>
            </g>
        </g>
    </g>
</svg>