<?xml version="1.0" encoding="UTF-8"?>
<svg width="210px" height="29px" viewBox="0 0 210 29" version="1.1" xmlns="http://www.w3.org/2000/svg" xmlns:xlink="http://www.w3.org/1999/xlink">
    <title>remox_logo</title>
    <defs>
        <linearGradient x1="65.4358094%" y1="74.3695198%" x2="40.417919%" y2="30.4224136%" id="linearGradient-1">
            <stop stop-color="#0047B8" offset="0%"></stop>
            <stop stop-color="#023B8F" offset="100%"></stop>
        </linearGradient>
        <linearGradient x1="60.0192885%" y1="44.0429177%" x2="35.0835834%" y2="70.2916674%" id="linearGradient-2">
            <stop stop-color="#0AB5FD" offset="0%"></stop>
            <stop stop-color="#0689F0" offset="100%"></stop>
        </linearGradient>
    </defs>
    <g id="Symbols" stroke="none" stroke-width="1" fill="none" fill-rule="evenodd">
        <g id="Remox-Header" transform="translate(-165.000000, -32.000000)">
            <g id="remox_logo" transform="translate(165.000000, 32.000000)">
                <g>
                    <path d="M91.0569106,5.32235294 L91.0569106,10.6731373 C86.2536585,10.377451 83.3227642,13.1807843 83.3227642,17.2976471 L83.3227642,28.2494118 L77.796748,28.2494118 L77.796748,5.50431373 L83.3227642,5.50431373 L83.3227642,9.87705882 C84.8479675,6.93156863 87.5227642,5.36215686 91.0569106,5.32235294 Z" id="Path" fill="#002357" fill-rule="nonzero"></path>
                    <path d="M111.544715,20.8629412 L114.777236,23.8368627 C112.341966,26.8380079 108.655437,28.5464485 104.789431,28.4654902 C97.6926829,28.4654902 92.8382114,23.8368627 92.8382114,16.9166667 C92.8382114,10.1670588 97.3,5.40764706 104.356911,5.36784314 C110.691057,5.28254902 114.936585,9.18901961 115.238211,15.5178431 L99.0243902,20.0952941 C100.03908,22.5586538 102.477613,24.1338689 105.142276,24.0472549 C107.560976,24.0472549 109.752033,22.9441176 111.544715,20.8629412 Z M98.4097561,16.404902 L109.837398,13.1352941 C108.904065,10.7584314 107.162602,9.72352941 104.652846,9.72352941 C100.868293,9.66666667 98.4894309,12.0264706 98.404065,16.404902 L98.4097561,16.404902 Z" id="Shape" fill="#002357" fill-rule="nonzero"></path>
                    <path d="M157.818699,14.0678431 L157.818699,28.2494118 L152.252846,28.2494118 L152.252846,15.6827451 C152.252846,12.4529412 150.34065,10.502549 147.278862,10.502549 C143.710569,10.6276471 141.542276,13.3456863 141.542276,17.0417647 L141.542276,28.2494118 L135.976423,28.2494118 L135.976423,15.6827451 C135.976423,12.4529412 134.104065,10.502549 131.047967,10.502549 C127.434146,10.6276471 125.265854,13.3456863 125.265854,17.0417647 L125.265854,28.2494118 L119.739837,28.2494118 L119.739837,5.50431373 L125.265854,5.50431373 L125.265854,9.70647059 C126.836585,6.6927451 129.642276,5.33372549 133.233333,5.28823529 C137.217073,5.28823529 139.988618,7.28411765 141.052846,10.7243137 C142.538211,7.02823529 145.514634,5.33372549 149.509756,5.28823529 C154.677236,5.32235294 157.818699,8.67156863 157.818699,14.0678431 Z" id="Path" fill="#002357" fill-rule="nonzero"></path>
                    <path d="M185.869919,16.8711765 C185.869919,23.7913725 181.026829,28.4654902 173.918699,28.4654902 C166.810569,28.4654902 161.893496,23.7970588 161.893496,16.8711765 C161.893496,9.94529412 166.747967,5.36215686 173.930081,5.36215686 C181.112195,5.36215686 185.869919,9.99078431 185.869919,16.8711765 Z M167.465041,16.9564706 C167.465041,21.0335294 170.1,23.8368627 173.92439,23.8368627 C177.74878,23.8368627 180.298374,21.0335294 180.298374,16.9564706 C180.298374,12.8794118 177.663415,10.0760784 173.92439,10.0760784 C170.185366,10.0760784 167.465041,12.8794118 167.465041,16.9564706 Z" id="Shape" fill="#002357" fill-rule="nonzero"></path>
                    <polygon id="Path" fill="#002357" fill-rule="nonzero" points="193.347967 5.5327451 198.065854 12.924902 202.908943 5.5327451 208.986992 5.5327451 201.75935 16.6152941 209.493496 28.2494118 203.119512 28.2494118 198.060163 20.2886275 192.579675 28.2494118 186.421951 28.2494118 194.389431 16.6152941 186.991057 5.5327451"></polygon>
                    <path d="M33.5772358,28.2494118 L56.5463415,28.2494118 C56.5418871,18.6869264 51.6980067,9.77528206 43.6728445,4.56508893 C35.6476823,-0.645104192 25.5298763,-1.4470673 16.7829268,2.43372549 C26.9940673,6.96792175 33.5754931,17.0846835 33.5772358,28.2494118 Z" id="Path" fill="url(#linearGradient-1)" fill-rule="nonzero"></path>
                    <path d="M28.5235772,0 C3.98373984,0 0,24.9229412 0,28.2494118 L22.9804878,28.2494118 C22.9738944,24.936929 23.5518458,21.6492238 24.6878049,18.5372549 C27.2886179,11.7137255 32.6552846,7.03392157 39.7520325,7.03392157 C45.2752805,7.00153811 50.3844637,9.95528349 53.1089431,14.7558824 C50.1439024,9.31980392 42.6829268,0 28.5235772,0 Z" id="Path" fill="url(#linearGradient-2)" fill-rule="nonzero"></path>
                    <path d="M42.7626016,3.8154902 C42.3831978,3.58424837 41.9924119,3.36248366 41.5902439,3.15019608 C30.1227642,-2.20058824 7.86504065,5.68627451 6.88617886,28.2152941 L6.88617886,28.2494118 L13.4195122,28.2494118 L13.4195122,28.2152941 C14.2276423,11.145098 30.5495935,-2.10960784 42.7626016,3.8154902 Z" id="Path" fill="#FFFFFF" fill-rule="nonzero"></path>
                </g>
            </g>
        </g>
    </g>
</svg>